<?xml version="1.0"?>
<svg version="1.1" xmlns="http://www.w3.org/2000/svg" width="400px" height="200px" style=""><path fill="#0095ff" d="M18,87.53125q0-0.4375,0.609375-0.671875t0.796875-0.234375l1.15625-0.1875q1.15625-0.1875,2.34375-0.328125t2.3125-0.265625q3.96875-0.5,7.9375-0.984375t8-0.484375q0.3125,0,0.859375,0.03125t1.09375,0.171875t0.9375,0.390625t0.390625,0.6875q0,0.3125-0.296875,0.546875t-0.703125,0.359375t-0.828125,0.15625t-0.671875,0.03125l-0.546875,0t-0.546875-0.125q-1.65625,0-3.265625,0.15625t-3.265625,0.28125q0.4375,0.5,0.46875,1.40625t0.0625,1.5625q0,11.0625,0.15625,22t0.28125,22.09375l0,0.0625q-1.03125,0.90625-1.765625,1.15625t-1.484375,0.25q-0.71875,0-1.453125-0.265625t-1.765625-1.140625l0-0.0625l0.25-24.53125q0-2.4375-0.0625-5.375t-0.0625-5.953125t0.09375-5.828125t0.5-4.90625q-1.84375,0.1875-3.90625,0.5625q-1.78125,0.3125-3.40625,0.3125l-0.5625,0q-0.125,0-0.734375,0.03125t-1.25-0.03125t-1.15625-0.25t-0.515625-0.625z M48.9584375,101.96875q0-1.21875,0.078125-3.578125t0.234375-4.921875t0.40625-4.796875t0.71875-3.203125q0.25-0.5,0.765625-0.671875t1.015625-0.171875q0.3125,0,1.046875,0.171875t0.734375,0.671875q0,0.78125-0.1875,2.953125t-0.34375,4.984375t-0.21875,5.84375l0,1.34375q0,2.28125,0.15625,4.28125q0.21875,2.5625,0.828125,4.21875t1.828125,1.65625q1.65625,0,3.09375-0.984375t2.625-2.5625t2.140625-3.53125t1.625-3.84375t1.125-3.484375t0.640625-2.5q0.1875-1.03125,0.328125-2.75t0.453125-3.375t1.109375-2.875t2.328125-1.21875q0.90625,0,1.734375,0.3125t1.078125,1.34375q-0.5,1.90625-0.84375,5.296875t-0.546875,7.109375t-0.296875,7.203125t-0.09375,5.671875q0,2.4375,0.0625,5.953125t0.21875,7.265625t0.359375,7.296875t0.453125,5.921875q0.25,0.5,0.25,1.15625q0,0.78125-0.3125,1.21875t-0.859375,0.65625t-1.1875,0.28125t-1.234375,0.0625q-0.90625,0-2.015625-0.3125t-1.359375-1.28125q-0.3125-1.15625-0.515625-3.046875t-0.296875-4.125t-0.15625-4.671875t-0.0625-4.671875t0.03125-4.15625t0.03125-3.140625q0-2.375,0.09375-4.671875t0.21875-4.671875q-0.78125,1.59375-1.828125,3.234375t-2.390625,2.984375t-3,2.203125t-3.59375,0.859375q-2.5,0-3.8125-1.34375t-1.90625-3.328125t-0.671875-4.21875t-0.078125-4.046875z M80.698125,126.0625q0-1.09375,0.75-1.390625t1.625-0.296875q1.53125,0,2.59375,1.375t2.015625,3.015625t1.890625,3.015625t2.21875,1.375q0.96875,0,1.765625-0.484375t1.375-1.21875t0.890625-1.65625t0.3125-1.828125q0-2.375-0.953125-4.90625t-2.4375-5.21875t-3.140625-5.5t-3.125-5.71875t-2.4375-5.921875t-0.96875-6.078125q0-4.59375,2.75-7.125t7.25-2.53125q1.53125,0,3.09375,0.4375t2.875,1.3125t2.140625,2.15625t0.828125,3q0,0.5625-0.828125,0.734375t-1.203125,0.171875q-0.5625,0-1.21875-0.140625t-0.84375-0.765625t-0.53125-1.4375t-0.859375-1.515625t-1.21875-1.21875t-1.546875-0.515625q-1.40625,0-2.390625,0.578125t-1.59375,1.546875t-0.90625,2.171875t-0.296875,2.484375q0,3,1.03125,6.046875t2.5625,6.0625t3.328125,5.953125t3.328125,5.71875t2.5625,5.4375t1.03125,5.03125q0,2.125-1,3.59375t-2.53125,2.390625t-3.390625,1.34375t-3.640625,0.421875q-1.90625,0-3.90625-0.765625t-3.59375-2.109375t-2.625-3.140625t-1.03125-3.890625z M108.8128125,109.90625q0-1.84375,0.203125-4.46875t0.75-5.46875t1.46875-5.65625t2.359375-4.96875t3.4375-3.40625q1.65625-1.03125,3.8125-1.03125q0.4375,0,0.90625,0.0625q5.4375,0.5,8.359375,2.484375t4.265625,5.03125t1.5625,6.9375t0.21875,8.203125q0,3.46875-0.640625,7.546875t-2.265625,7.609375t-4.484375,5.890625t-7.265625,2.359375q-2.6875,0-4.703125-0.984375t-3.421875-2.625t-2.3125-3.8125t-1.375-4.5t-0.671875-4.703125t-0.203125-4.5z M115.1565625,108.5q0,1.34375,0.03125,3.296875t0.265625,4.109375t0.609375,4.296875t1.109375,3.890625t1.859375,2.875t2.71875,1.1875l0.15625,0q1.4375,0,2.5625-1.09375q1.1875-1.15625,2.109375-2.78125t1.59375-3.421875t1.203125-3.078125l-0.125,0.28125q0.90625-2.875,1.21875-5.890625t0.3125-5.953125q0-1.40625-0.1875-3.390625t-0.609375-4.140625t-1.09375-4.265625t-1.703125-3.671875t-2.40625-2.375q-1-0.59375-2.21875-0.625q-0.46875,0-0.9375,0.09375q-1.59375,0.3125-2.71875,1.5625t-1.828125,3.078125t-1.078125,4t-0.578125,4.375t-0.234375,4.21875t-0.03125,3.421875z M129.2503125,118.125l0-0.0625l0,0.0625z M142.615,91.09375q0-0.375,0.359375-0.5625t0.78125-0.28125t0.765625-0.09375l0.34375,0q1.09375,0,1.578125,0.5t1.171875,1.28125q4.6875,6.78125,8.59375,13.953125t7.53125,14.515625q0.3125-8.5625,0.640625-17.234375t0.828125-17.203125q0-0.375,0.359375-0.625t0.8125-0.375t0.921875-0.15625t0.71875-0.03125q0.375,0,0.828125,0.03125t0.90625,0.1875t0.75,0.375t0.296875,0.59375q0.125,1.34375,0.140625,2.703125t0.015625,2.703125q0,10.0625-0.4375,19.71875t-0.4375,19.5l0,2.25q0,0.125-0.125,0.375q0.0625,0.25,0.1875,0.546875t0.125,0.421875q0,0.5-0.515625,0.75t-1.125,0.390625t-1.078125,0.140625t-0.34375,0q-1.59375,0-2.6875-0.875t-1.09375-2.09375q-2.3125-5.1875-4.609375-10.296875t-4.796875-10.171875q-1.59375-3.1875-3.203125-6.390625t-3.453125-6.203125q0.0625,0.0625,0.0625,0.1875q0.3125,3.125,0.671875,6.234375t0.546875,6.234375q0.125,2.6875,0.28125,5.4375t0.5,5.4375q0,1.03125-0.640625,1.3125t-1.484375,0.28125q-0.71875,0-1.359375-0.1875t-0.765625-0.9375q0-2.875-0.21875-6.109375t-0.40625-6.515625q-0.3125-4.34375-0.828125-8.828125t-0.515625-8.765625q0-0.1875,0.03125-0.390625t0.03125-0.453125q-0.1875-0.3125-0.421875-0.65625t-0.234375-0.625z M177.9796875,130.21875q0-0.78125,0.09375-1.578125t0.09375-1.578125l0-0.5q0-0.96875,0.796875-1.21875t1.640625-0.25q0.96875,0,1.859375,0.40625t0.890625,1.5625q0.1875,0.5625,0.1875,1.34375l0,1.46875q0,1.09375-0.765625,1.515625t-2.046875,0.421875q-0.90625,0-1.828125-0.328125t-0.921875-1.265625z M190.656875,84.71875q0-0.625,0.96875-0.890625t1.59375-0.265625q0.71875,0,1.578125,0.1875t1.046875,0.96875q0.90625,3.65625,1.390625,7.453125t0.734375,7.640625t0.40625,7.640625t0.34375,7.515625q0.84375-3.71875,1.734375-7.390625t2.328125-7.328125l0-2.5q0-1.59375,1.109375-2.296875t2.984375-0.703125q0.1875,0,0.859375,0.09375t0.671875,0.625q-0.125,0.375-0.296875,0.71875t-0.171875,0.75q0,4.75,1.125,9.734375t2.21875,9.703125q0.625-4.03125,1.4375-8.03125t1.6875-7.96875q1.15625-5.3125,1.765625-8.828125t1.15625-5.5625t1.1875-2.90625t1.796875-0.859375q0.71875-0.0625,1.34375,0.25t0.5,1.03125q-2.25,10.875-4.203125,21.8125t-3.984375,21.875q0,0.625,0.21875,1.46875t0.21875,1.5q0,0.375-0.34375,0.625t-0.828125,0.421875t-1.0625,0.234375t-1.015625,0.0625q-0.96875,0-2.03125-0.296875t-1.375-1.703125q-1.09375-4.875-2.015625-9.796875t-1.703125-9.921875q-0.25,1.15625-0.46875,2.34375t-0.40625,2.40625q-0.90625,5.3125-2,10.625t-1.09375,10.75q0,1.34375-0.5625,1.734375t-1.90625,0.390625q-1.03125,0-1.75-0.34375q-0.5625-0.3125-1.0625-0.5625q-0.4375-0.25-0.796875-0.578125t-0.359375-0.640625q-0.5-6.78125-0.703125-13.46875t-0.453125-13.46875q-0.25-6.09375-0.734375-12.171875t-1.078125-12.078125z"/><path fill="#" d=""/></svg>
